<svg xmlns="http://www.w3.org/2000/svg" xmlns:xlink="http://www.w3.org/1999/xlink" xmlns:svgjs="http://svgjs.com/svgjs"
    id="SvgjsSvg1031" width="263" height="132" version="1.1">
    <defs id="SvgjsDefs1032" />
    <g id="SvgjsG1033"><svg xmlns="http://www.w3.org/2000/svg" width="288" height="288">
            <defs>
                <linearGradient id="a" x1="111.667" x2="20.246" y1="111.667" y2="20.246" gradientUnits="userSpaceOnUse">
                    <stop offset="0" stop-color="#ca4e73" class="stopColor07758e svgShape" />
                    <stop offset="1" stop-color="#ffb859" class="stopColor087f95 svgShape" />
                </linearGradient>
                <linearGradient id="b" x1="242.667" x2="151.246" y1="111.667" y2="20.246"
                    gradientUnits="userSpaceOnUse">
                    <stop offset="0" stop-color="#099cbe" class="stopColor099cbe svgShape" />
                    <stop offset="1" stop-color="#ffffff" class="stopColor0ba9c7 svgShape" />
                </linearGradient>
            </defs>
            <g data-name="Layer 2" fill="#000000" class="color000 svgShape">
                <g data-name="Layer 1" fill="#000000" class="color000 svgShape">
                    <rect width="263" height="132" fill="none" />
                    <polygon points="32.587 60.711 46 74 41 88 37 87 32.587 60.711" opacity=".1" fill="#000000"
                        class="color000 svgShape" />
                    <circle cx="66" cy="66" r="65" fill="url(#a)" />
                    <path
                        d="M130.7339,71.7339,101,42,55,43,42,89l-5,1,40.0461,40.0461A65.0093,65.0093,0,0,0,130.7339,71.7339Z"
                        opacity=".2" fill="#000000" class="color000 svgShape" />
                    <path fill="#ffffff"
                        d="M71.1014,85.3711H70.9q-.6333.519-1.51,1.3119a13.8136,13.8136,0,0,1-2.0569,1.5139,14.6328,14.6328,0,0,1-2.4452,1.2539,7.6247,7.6247,0,0,1-2.877.5335,7.8857,7.8857,0,0,1-6.5446-2.9988q-2.374-2.9989-2.3734-8.1892a18.8511,18.8511,0,0,1,1.3242-6.9492,20.65,20.65,0,0,1,3.6556-6.0552,17.4542,17.4542,0,0,1,5.2682-4.1376,13.5489,13.5489,0,0,1,6.2757-1.5715,13.7141,13.7141,0,0,1,3.9.5477A11.3614,11.3614,0,0,1,76.4389,61.87l5.287-1.3551.3466.4324L77.6839,79.5484q-.2308.8937-.4752,2.1775a11.26,11.26,0,0,0-.2449,1.8886,2.8115,2.8115,0,0,0,.6917,2.221,3.6829,3.6829,0,0,0,2.337.5767,9.94,9.94,0,0,0,1.5586-.173,9.2911,9.2911,0,0,0,1.5583-.3744l-.433,1.8435q-2.5979,1.0371-3.8681,1.4978a9.1,9.1,0,0,1-3.0882.461,4.45,4.45,0,0,1-3.2908-1.2107A4.6,4.6,0,0,1,71.1014,85.3711ZM75.2529,67.146a7.9976,7.9976,0,0,0-.2017-1.8164,3.8388,3.8388,0,0,0-.8357-1.6156A3.9981,3.9981,0,0,0,72.63,62.56a6.4673,6.4673,0,0,0-2.5359-.4324,7.0825,7.0825,0,0,0-4.0929,1.3844,14.0779,14.0779,0,0,0-3.5733,3.72,19.3756,19.3756,0,0,0-2.45,5.3067,22.2832,22.2832,0,0,0-.75,9.4311,7.9773,7.9773,0,0,0,.7765,2.48,3.9835,3.9835,0,0,0,1.5811,1.7017,5.1171,5.1171,0,0,0,2.6164.6054,7.3946,7.3946,0,0,0,3.3781-.9082,16.3228,16.3228,0,0,0,3.9828-3.1872Z"
                        class="colorfff svgShape" />
                    <path fill="#ffffff"
                        d="M103.0282,65.3672l-.25,1.0646q-1.5025.5986-2.337.873a5.3676,5.3676,0,0,1-1.6856.2745,2.6644,2.6644,0,0,1-2.0027-.6911,2.3605,2.3605,0,0,1-.6674-1.7066,5.4428,5.4428,0,0,1,.0666-.8074q.0661-.4413.2174-1.0408l1.6428-6.21q.1846-.7156.2927-1.2986a5.3766,5.3766,0,0,0,.1082-.9326,2.7153,2.7153,0,0,0-.5289-1.7649,1.9044,1.9044,0,0,0-1.5682-.6492,4.9085,4.9085,0,0,0-2.26.6664,8.3849,8.3849,0,0,0-2.3592,1.9324l-2.8418,12.22h-3.107l2.4942-10.79q.0833-.4.2412-1.1571a6.2865,6.2865,0,0,0,.1582-1.2237,1.7975,1.7975,0,0,0-.317-1.2487,1.8376,1.8376,0,0,0-1.2693-.3167,4.5422,4.5422,0,0,0-.9366.1249q-.5685.1244-.886.2079l.2507-1.0646a17.3134,17.3134,0,0,1,2.3071-.8647,6.5132,6.5132,0,0,1,1.7223-.2828,2.2728,2.2728,0,0,1,1.8892.7161,3.2513,3.2513,0,0,1,.602,1.9808h.1a21.254,21.254,0,0,1,3.1483-2.1723,6.3054,6.3054,0,0,1,3.0157-.7074,3.2994,3.2994,0,0,1,2.4853.9239,3.3349,3.3349,0,0,1,.8949,2.4227,10.6658,10.6658,0,0,1-.0913,1.0655,10.925,10.925,0,0,1-.2911,1.5151L99.8663,61.77q-.15.5329-.2917,1.224a5.7376,5.7376,0,0,0-.1412,1.0738,1.6106,1.6106,0,0,0,.416,1.29,2.1576,2.1576,0,0,0,1.3646.3414,5.4453,5.4453,0,0,0,.907-.1082A5.77,5.77,0,0,0,103.0282,65.3672Z"
                        class="colorbbf2ff svgShape" />
                    <polygon fill="#ffffff"
                        points="101 42 57.393 42 52.498 42 39.898 86.54 32.587 60.711 28.709 60.711 37 90 38.919 90 40.878 90 43.814 90 56.634 44.684 101 44.684 101 42"
                        class="colorfff svgShape" />
                    <circle cx="197" cy="66" r="65" fill="url(#b)" />
                    <path
                        d="M261.7339,71.7339,232,42l-46,1L173,89l-5,1,40.0461,40.0461A65.0093,65.0093,0,0,0,261.7339,71.7339Z"
                        opacity=".1" fill="#000000" class="color000 svgShape" />
                    <path fill="#ffffff"
                        d="M202.1014,85.3711H201.9q-.6333.519-1.51,1.3119a13.8136,13.8136,0,0,1-2.0569,1.5139,14.6328,14.6328,0,0,1-2.4452,1.2539,7.6247,7.6247,0,0,1-2.877.5335,7.8857,7.8857,0,0,1-6.5446-2.9988q-2.374-2.9989-2.3734-8.1892a18.8511,18.8511,0,0,1,1.3242-6.9492,20.65,20.65,0,0,1,3.6556-6.0552,17.4542,17.4542,0,0,1,5.2682-4.1376,13.5489,13.5489,0,0,1,6.2757-1.5715,13.7141,13.7141,0,0,1,3.9.5477,11.3614,11.3614,0,0,1,2.9223,1.2394l5.287-1.3551.3466.4324-4.3887,18.6014q-.2308.8937-.4752,2.1775a11.26,11.26,0,0,0-.2449,1.8886,2.8115,2.8115,0,0,0,.6917,2.221,3.6829,3.6829,0,0,0,2.337.5767,9.94,9.94,0,0,0,1.5586-.173,9.2911,9.2911,0,0,0,1.5583-.3744l-.433,1.8435q-2.5979,1.0371-3.8681,1.4978a9.1,9.1,0,0,1-3.0882.461,4.45,4.45,0,0,1-3.2908-1.2107A4.6,4.6,0,0,1,202.1014,85.3711Zm4.1515-18.2251a7.9976,7.9976,0,0,0-.2017-1.8164,3.8388,3.8388,0,0,0-.8357-1.6156A3.9981,3.9981,0,0,0,203.63,62.56a6.4673,6.4673,0,0,0-2.5359-.4324,7.0825,7.0825,0,0,0-4.0929,1.3844,14.0778,14.0778,0,0,0-3.5733,3.72,19.3756,19.3756,0,0,0-2.45,5.3067,22.2832,22.2832,0,0,0-.75,9.4311,7.9773,7.9773,0,0,0,.7765,2.48,3.9835,3.9835,0,0,0,1.5811,1.7017,5.1171,5.1171,0,0,0,2.6164.6054,7.3946,7.3946,0,0,0,3.3781-.9082,16.3228,16.3228,0,0,0,3.9828-3.1872Z"
                        class="colorfff svgShape" />
                    <path fill="#ffffff"
                        d="M234.0282,65.3672l-.25,1.0646q-1.5025.5986-2.337.873a5.3676,5.3676,0,0,1-1.6856.2745,2.6644,2.6644,0,0,1-2.0027-.6911,2.3605,2.3605,0,0,1-.6674-1.7066,5.4427,5.4427,0,0,1,.0666-.8074q.0661-.4413.2174-1.0408l1.6428-6.21q.1846-.7156.2927-1.2986a5.3766,5.3766,0,0,0,.1082-.9326,2.7153,2.7153,0,0,0-.5289-1.7649,1.9044,1.9044,0,0,0-1.5682-.6492,4.9085,4.9085,0,0,0-2.26.6664,8.3849,8.3849,0,0,0-2.3592,1.9324l-2.8418,12.22h-3.107l2.4942-10.79q.0833-.4.2412-1.1571a6.2865,6.2865,0,0,0,.1582-1.2237,1.7975,1.7975,0,0,0-.317-1.2487,1.8376,1.8376,0,0,0-1.2693-.3167,4.5422,4.5422,0,0,0-.9366.1249q-.5685.1244-.886.2079l.2507-1.0646a17.3134,17.3134,0,0,1,2.3071-.8647,6.5132,6.5132,0,0,1,1.7223-.2828,2.2728,2.2728,0,0,1,1.8892.7161,3.2513,3.2513,0,0,1,.602,1.9808h.1a21.254,21.254,0,0,1,3.1483-2.1723,6.3054,6.3054,0,0,1,3.0157-.7074,3.2994,3.2994,0,0,1,2.4853.9239,3.3349,3.3349,0,0,1,.8949,2.4227,10.6658,10.6658,0,0,1-.0913,1.0655,10.925,10.925,0,0,1-.2911,1.5151L230.8663,61.77q-.15.5329-.2917,1.224a5.7376,5.7376,0,0,0-.1412,1.0738,1.6106,1.6106,0,0,0,.416,1.29,2.1576,2.1576,0,0,0,1.3646.3414,5.4453,5.4453,0,0,0,.907-.1082A5.77,5.77,0,0,0,234.0282,65.3672Z"
                        class="colorbbf2ff svgShape" />
                    <polygon fill="#ffffff"
                        points="232 42 188.393 42 183.498 42 170.898 86.54 163.587 60.711 159.709 60.711 168 90 169.919 90 171.878 90 174.814 90 187.634 44.684 232 44.684 232 42"
                        class="colorfff svgShape" />
                </g>
            </g>
        </svg></g>
</svg>