<svg xmlns="http://www.w3.org/2000/svg" xmlns:xlink="http://www.w3.org/1999/xlink" width="263" height="132" viewBox="0 0 263 132"><defs><linearGradient id="5621e818-7327-432f-aac7-111fdb2601c9" x1="111.7843" y1="111.6667" x2="20.3634" y2="20.2458" gradientUnits="userSpaceOnUse"><stop offset="0" stop-color="#07758e"/><stop offset="1" stop-color="#087f95"/></linearGradient><linearGradient id="9bf64133-ce08-41ec-9b27-8b849a6dcafc" x1="237" y1="106" x2="151" y2="20" gradientUnits="userSpaceOnUse"><stop offset="0" stop-color="#099cbe"/><stop offset="1" stop-color="#0ba9c7"/></linearGradient></defs><title>Математика</title><g id="1012a840-7b70-402d-a8bc-b1af20178dc2" data-name="Layer 2"><g id="0bb4a40a-3e38-4f9d-a287-5ab5b0499cdd" data-name="Layer 1"><rect width="263" height="132" fill="none"/><polygon points="91.281 45.094 87.719 44.75 86.133 45.661 90.783 50.311 91.281 45.094" opacity="0.1"/><circle cx="66.1176" cy="66" r="65" fill="url(#5621e818-7327-432f-aac7-111fdb2601c9)"/><path d="M129.6169,79.8809,94.6389,43.8184,91.5,50.5l-4,9.5833-.5625,9.1042-.48,2.0415L68.3484,53.12,66.5,63.5l-8.751,1.4446-8.5168-8.5168-9.23.91L32,60.3333,28.3335,70l.3958,6.4932,52.68,52.68A65.0716,65.0716,0,0,0,129.6169,79.8809Z" opacity="0.1"/><path d="M40.778,75.2486h-.1548q-.4885.4006-1.1641,1.0112a10.66,10.66,0,0,1-1.5854,1.1665,11.2333,11.2333,0,0,1-1.8838.9663,5.8812,5.8812,0,0,1-2.2173.4111,6.077,6.077,0,0,1-5.0435-2.3105A9.9083,9.9083,0,0,1,26.9,70.1822a14.5365,14.5365,0,0,1,1.0205-5.355,15.9146,15.9146,0,0,1,2.8174-4.6665,13.4445,13.4445,0,0,1,4.06-3.188,10.44,10.44,0,0,1,4.8364-1.2114,10.5757,10.5757,0,0,1,3.0054.4224,8.7506,8.7506,0,0,1,2.252.9551l4.0737-1.0444.2671.3335L45.85,70.7618q-.178.6892-.3662,1.6782a8.6612,8.6612,0,0,0-.1885,1.4556,2.1671,2.1671,0,0,0,.5332,1.7114,2.8383,2.8383,0,0,0,1.8008.4443,7.6637,7.6637,0,0,0,1.2012-.1333,7.1676,7.1676,0,0,0,1.2007-.2886l-.3335,1.42q-2.0024.7991-2.981,1.1543a7.0091,7.0091,0,0,1-2.38.3555,3.4278,3.4278,0,0,1-2.5356-.9331A3.5449,3.5449,0,0,1,40.778,75.2486Zm3.1992-14.0439a6.1813,6.1813,0,0,0-.1553-1.4,2.9649,2.9649,0,0,0-.6445-1.2451,3.0762,3.0762,0,0,0-1.2217-.8887,4.9786,4.9786,0,0,0-1.9541-.3335,5.4576,5.4576,0,0,0-3.1538,1.0669,10.8556,10.8556,0,0,0-2.7539,2.8667A14.9367,14.9367,0,0,0,32.2063,65.36a17.1785,17.1785,0,0,0-.5781,7.2681,6.1587,6.1587,0,0,0,.5986,1.9111,3.072,3.072,0,0,0,1.2183,1.3115,3.9469,3.9469,0,0,0,2.0166.4663,5.7021,5.7021,0,0,0,2.603-.7,12.5916,12.5916,0,0,0,3.0688-2.4565Z" fill="#fff"/><path d="M78.8484,67.26h-10.5v10.5H64.7077V67.26h-10.5V63.62h10.5V53.12h3.6406v10.5h10.5Z" fill="#bbf2ff"/><path d="M105.3352,64.25A15.7057,15.7057,0,0,1,101.45,74.56a13.8236,13.8236,0,0,1-4.0625,3.144,10.4906,10.4906,0,0,1-4.7949,1.1445,15.6878,15.6878,0,0,1-3.3633-.3218,9.4766,9.4766,0,0,1-2.4751-.8779,7.1344,7.1344,0,0,1-1.7314-1.2993,9.9879,9.9879,0,0,1-1.2432-1.61l5.7217-25.146q.1113-.5112.189-.8774a3.5829,3.5829,0,0,0,.0776-.7446,2.3618,2.3618,0,0,0-.2666-1.2324,1.6758,1.6758,0,0,0-.7534-.6553,3.92,3.92,0,0,0-1.1748-.2666q-.709-.0667-1.44-.1558l.31-1.354,8.1963-.4883.2212.332-3.354,14.7407h.0889a14.5428,14.5428,0,0,1,3.5239-2.4526,7.2836,7.2836,0,0,1,2.9683-.6772,6.5722,6.5722,0,0,1,5.3135,2.3A9.3027,9.3027,0,0,1,105.3352,64.25Zm-4.5732.11a13.4821,13.4821,0,0,0-.2114-2.3667,5.703,5.703,0,0,0-.7007-1.9893A3.681,3.681,0,0,0,98.4485,58.67a4.5262,4.5262,0,0,0-2.2031-.4888,4.04,4.04,0,0,0-1.4687.2666,9.0933,9.0933,0,0,0-1.4233.7109,8.2751,8.2751,0,0,0-1.2573.9673q-.6116.5662-1.1235,1.0107L88.0193,74.316a2.6209,2.6209,0,0,0,.4.9785,3.5953,3.5953,0,0,0,.8447.9326,4.4736,4.4736,0,0,0,1.4014.7783,5.2551,5.2551,0,0,0,1.7124.2666,5.8375,5.8375,0,0,0,3.3027-1.0332,9.233,9.233,0,0,0,2.6572-2.79,14.4935,14.4935,0,0,0,1.8237-4.2671A19.4413,19.4413,0,0,0,100.7619,64.3595Z" fill="#fff"/><circle cx="197" cy="66" r="65" fill="url(#9bf64133-ce08-41ec-9b27-8b849a6dcafc)"/><path d="M260.4993,79.8809l-34.978-36.0625L222.3824,50.5l-4,9.5833-.5625,9.1042-.48,2.0415L199.2307,53.12,197.3824,63.5l-8.751,1.4446-8.5168-8.5168-9.23.91-8.0017,2.9958L159.2158,70l.3958,6.4932,52.68,52.68A65.0716,65.0716,0,0,0,260.4993,79.8809Z" opacity="0.1"/><path d="M171.66,75.2486h-.1548q-.4885.4006-1.1641,1.0112a10.66,10.66,0,0,1-1.5854,1.1665,11.2333,11.2333,0,0,1-1.8838.9663,5.8812,5.8812,0,0,1-2.2173.4111,6.077,6.077,0,0,1-5.0435-2.3105,9.9083,9.9083,0,0,1-1.8291-6.311,14.5365,14.5365,0,0,1,1.0205-5.355,15.9146,15.9146,0,0,1,2.8174-4.6665,13.4445,13.4445,0,0,1,4.06-3.188,10.44,10.44,0,0,1,4.8364-1.2114,10.5757,10.5757,0,0,1,3.0054.4224,8.7506,8.7506,0,0,1,2.252.9551l4.0737-1.0444.2671.3335-3.3818,14.334q-.178.6892-.3662,1.6782a8.6612,8.6612,0,0,0-.1885,1.4556,2.1671,2.1671,0,0,0,.5332,1.7114,2.8383,2.8383,0,0,0,1.8008.4443,7.6637,7.6637,0,0,0,1.2012-.1333,7.1676,7.1676,0,0,0,1.2007-.2886l-.3335,1.42q-2.0024.7991-2.981,1.1543a7.0091,7.0091,0,0,1-2.38.3555,3.4278,3.4278,0,0,1-2.5356-.9331A3.5449,3.5449,0,0,1,171.66,75.2486ZM174.86,61.2047a6.1813,6.1813,0,0,0-.1553-1.4A2.9649,2.9649,0,0,0,174.06,58.56a3.0762,3.0762,0,0,0-1.2217-.8887,4.9786,4.9786,0,0,0-1.9541-.3335,5.4576,5.4576,0,0,0-3.1538,1.0669,10.8556,10.8556,0,0,0-2.7539,2.8667,14.9367,14.9367,0,0,0-1.8877,4.0894,17.1785,17.1785,0,0,0-.5781,7.2681,6.1587,6.1587,0,0,0,.5986,1.9111,3.072,3.072,0,0,0,1.2183,1.3115,3.9469,3.9469,0,0,0,2.0166.4663,5.7021,5.7021,0,0,0,2.603-.7,12.5916,12.5916,0,0,0,3.0688-2.4565Z" fill="#fff"/><path d="M209.7307,67.26h-10.5v10.5H195.59V67.26h-10.5V63.62h10.5V53.12h3.6406v10.5h10.5Z" fill="#bbf2ff"/><path d="M236.2175,64.25a15.7057,15.7057,0,0,1-3.8848,10.31,13.8236,13.8236,0,0,1-4.0625,3.144,10.4906,10.4906,0,0,1-4.7949,1.1445,15.6878,15.6878,0,0,1-3.3633-.3218,9.4766,9.4766,0,0,1-2.4751-.8779,7.1344,7.1344,0,0,1-1.7314-1.2993,9.9879,9.9879,0,0,1-1.2432-1.61l5.7217-25.146q.1113-.5112.189-.8774a3.5829,3.5829,0,0,0,.0776-.7446,2.3618,2.3618,0,0,0-.2666-1.2324,1.6758,1.6758,0,0,0-.7534-.6553,3.92,3.92,0,0,0-1.1748-.2666q-.709-.0667-1.44-.1558l.31-1.354,8.1963-.4883.2212.332-3.354,14.7407h.0889a14.5428,14.5428,0,0,1,3.5239-2.4526,7.2836,7.2836,0,0,1,2.9683-.6772,6.5722,6.5722,0,0,1,5.3135,2.3A9.3027,9.3027,0,0,1,236.2175,64.25Zm-4.5732.11a13.4821,13.4821,0,0,0-.2114-2.3667,5.703,5.703,0,0,0-.7007-1.9893,3.681,3.681,0,0,0-1.4014-1.3335,4.5262,4.5262,0,0,0-2.2031-.4888,4.04,4.04,0,0,0-1.4687.2666,9.0933,9.0933,0,0,0-1.4233.7109,8.2751,8.2751,0,0,0-1.2573.9673q-.6116.5662-1.1235,1.0107L218.9016,74.316a2.6209,2.6209,0,0,0,.4.9785,3.5953,3.5953,0,0,0,.8447.9326,4.4736,4.4736,0,0,0,1.4014.7783,5.2551,5.2551,0,0,0,1.7124.2666,5.8375,5.8375,0,0,0,3.3027-1.0332,9.233,9.233,0,0,0,2.6572-2.79,14.4935,14.4935,0,0,0,1.8237-4.2671A19.4413,19.4413,0,0,0,231.6443,64.3595Z" fill="#fff"/></g></g></svg>